<!DOCTYPE svg PUBLIC "-//W3C//DTD SVG 20010904//EN" "http://www.w3.org/TR/2001/REC-SVG-20010904/DTD/svg10.dtd">
<svg version="1.0" xmlns="http://www.w3.org/2000/svg" width="1600px" height="1600px" viewBox="0 0 16000 16000" preserveAspectRatio="xMidYMid meet">
<g id="layer101" fill="#000000" stroke="none">
 <path d="M2275 10388 c-22 -5 -95 -22 -162 -38 -199 -46 -344 -128 -460 -261 -122 -139 -183 -298 -183 -478 l0 -101 268 0 268 0 21 28 c11 15 23 52 27 82 15 113 68 190 166 239 64 33 85 38 187 51 166 21 334 -21 409 -103 33 -35 39 -48 42 -99 4 -50 1 -64 -22 -98 -45 -69 -148 -120 -335 -166 -204 -50 -427 -114 -505 -144 -184 -71 -337 -203 -402 -345 -90 -196 -63 -479 60 -641 117 -153 226 -231 411 -293 l90 -31 -312 0 -311 0 -31 -26 -31 -26 0 -1112 0 -1113 23 -21 23 -22 841 0 c801 0 841 1 856 18 15 16 17 48 17 239 0 200 -2 221 -18 236 -17 15 -72 17 -580 17 l-562 0 0 185 0 185 513 0 514 0 21 23 c21 22 22 32 22 218 0 191 0 196 -23 217 -23 22 -23 22 -535 22 l-512 0 0 220 0 220 573 0 572 0 28 25 27 26 0 204 0 204 -32 30 -33 31 -240 1 -240 0 71 19 c157 43 282 117 387 230 108 117 165 248 182 424 7 65 6 69 -21 97 l-28 29 -262 0 -263 0 -5 -32 c-3 -18 -8 -53 -11 -76 -11 -87 -63 -155 -146 -191 -65 -29 -212 -44 -297 -31 -139 23 -207 85 -207 191 0 62 21 96 75 124 55 28 226 80 450 136 129 33 258 67 285 76 62 20 168 72 228 113 51 34 157 145 193 202 65 102 98 298 75 445 -20 129 -52 207 -124 306 -122 168 -306 270 -582 324 -93 18 -390 26 -450 11z"/>
 <path d="M6910 10390 c-8 -5 -27 -10 -41 -10 -57 0 -229 -53 -324 -99 -218 -107 -391 -284 -497 -509 -21 -46 -55 -143 -76 -215 l-37 -132 0 -240 c0 -239 1 -240 33 -356 66 -240 158 -407 306 -555 125 -124 280 -217 442 -263 l69 -20 -622 0 -621 -1 -31 -26 -31 -26 0 -1112 0 -1113 23 -21 23 -22 840 0 841 0 21 23 c21 22 22 31 22 233 0 207 0 211 -23 232 l-23 22 -562 0 -562 0 0 185 0 185 518 0 c490 0 520 1 535 18 15 16 17 47 17 220 0 176 -2 204 -17 222 -17 20 -29 20 -535 20 l-518 0 0 220 0 220 571 0 c561 0 571 0 600 21 l29 20 0 214 c0 213 0 214 -24 232 l-23 19 73 12 c179 28 367 125 499 257 145 144 226 298 259 487 14 80 14 83 -7 109 l-22 28 -264 -2 -264 -2 -12 -55 c-43 -214 -262 -352 -508 -320 -161 21 -287 109 -368 259 -46 86 -65 147 -84 271 -61 398 81 742 345 835 76 27 176 37 259 25 147 -20 245 -90 310 -219 34 -66 71 -194 71 -243 l0 -28 263 0 c263 0 264 0 285 23 14 15 22 36 22 59 0 54 -27 186 -55 267 -27 81 -109 242 -140 275 -11 12 -35 41 -54 65 -106 133 -311 245 -546 298 -83 19 -363 28 -385 13z"/>
 <path d="M8192 10317 l-22 -23 0 -1110 0 -1110 28 -27 28 -27 244 0 244 0 28 27 28 27 0 1111 0 1112 -23 21 c-23 21 -30 22 -278 22 -254 0 -256 0 -277 -23z"/>
 <path d="M8962 10317 l-22 -23 0 -1110 0 -1110 28 -27 28 -27 1970 0 1971 0 38 63 c20 34 85 143 143 242 58 99 117 199 131 222 14 23 46 76 71 118 25 42 59 98 76 126 l31 51 100 -168 c55 -93 118 -200 140 -239 38 -67 81 -139 128 -215 12 -19 41 -69 65 -110 24 -41 48 -78 54 -82 6 -4 138 -8 293 -8 l281 0 21 36 c12 20 21 42 19 48 -2 9 -143 245 -350 587 -10 16 -54 91 -99 166 -45 76 -99 166 -120 201 -86 138 -119 191 -178 290 l-61 104 0 422 0 423 -23 21 c-23 21 -30 22 -278 22 -254 0 -256 0 -277 -23 -22 -23 -22 -26 -22 -446 0 -452 2 -435 -50 -511 -10 -14 -65 -106 -124 -205 -59 -99 -133 -223 -165 -275 -32 -52 -95 -158 -140 -235 -46 -77 -85 -142 -87 -144 -2 -3 -14 5 -27 17 -23 22 -29 22 -330 22 l-307 0 0 878 0 879 -23 21 c-23 21 -30 22 -278 22 -234 -1 -256 -2 -276 -19 l-23 -19 0 -881 0 -881 -880 0 -880 0 0 180 0 180 513 0 513 0 27 28 27 28 0 195 c0 191 0 196 -23 217 l-23 22 -517 0 -517 0 0 220 0 220 578 0 579 0 21 23 c21 22 22 31 22 233 0 207 0 211 -23 232 l-23 22 -850 0 -851 0 -21 -23z"/>
 <path d="M4143 10274 c-29 -13 -53 -29 -53 -36 0 -7 22 -23 48 -35 l47 -21 -106 -1 -106 -1 -57 -42 c-31 -23 -56 -45 -56 -50 0 -4 152 -8 338 -8 l338 0 17 -35 c32 -67 146 -97 214 -55 46 27 83 91 83 140 0 58 -38 118 -92 146 -66 35 -178 1 -208 -63 -24 -51 -66 -46 -215 27 -67 33 -127 60 -131 59 -5 0 -33 -11 -61 -25z"/>
 <path d="M5215 10156 c-53 -24 -87 -70 -92 -123 l-5 -49 -159 -77 -159 -77 -583 0 c-320 0 -587 -4 -593 -8 -16 -11 -54 -78 -54 -96 0 -15 54 -16 625 -16 385 0 632 4 643 10 9 5 88 43 174 85 158 76 158 76 190 59 22 -11 48 -15 90 -12 53 4 63 8 100 45 32 32 41 50 45 86 7 62 -1 90 -40 131 -51 55 -118 71 -182 42z"/>
 <path d="M5512 9760 c-18 -11 -41 -34 -50 -50 -16 -29 -20 -30 -85 -30 -65 0 -75 -4 -239 -85 l-171 -85 -748 0 -748 0 -10 -37 c-6 -21 -11 -44 -11 -51 0 -10 159 -12 798 -10 l797 3 157 78 c124 61 165 77 200 77 38 0 47 -4 56 -25 6 -13 31 -38 54 -56 38 -27 49 -30 94 -27 37 3 61 12 88 34 49 38 66 72 66 134 0 47 -4 55 -44 98 -42 44 -46 46 -107 49 -52 3 -70 0 -97 -17z"/>
 <path d="M5633 9305 c-18 -7 -45 -32 -60 -54 l-28 -40 -1063 -1 -1063 0 3 -52 3 -53 1060 -3 1060 -2 18 -28 c32 -47 67 -66 128 -70 67 -5 118 19 150 72 23 37 25 112 5 160 -29 69 -136 105 -213 71z"/>
 <path d="M3454 8868 c4 -23 12 -48 18 -55 8 -10 158 -13 763 -13 l753 0 167 -80 c157 -75 171 -80 234 -80 63 0 67 -2 83 -30 39 -68 154 -94 226 -50 98 60 97 207 -3 265 -61 36 -129 34 -183 -4 -22 -17 -43 -39 -47 -50 -5 -17 -15 -21 -55 -21 -40 0 -78 14 -216 80 l-167 80 -790 0 -790 0 7 -42z"/>
 <path d="M3564 8595 c-3 -8 3 -27 13 -42 11 -15 23 -36 26 -45 6 -17 44 -18 606 -18 l600 0 164 -77 165 -78 4 -47 c8 -82 73 -138 161 -138 84 0 157 75 157 160 0 117 -127 195 -234 145 -32 -15 -34 -15 -215 70 l-183 85 -629 0 c-544 0 -630 -2 -635 -15z"/>
 <path d="M4602 8320 c-18 -11 -41 -34 -50 -50 l-17 -30 -342 0 c-268 0 -343 -3 -343 -12 0 -7 26 -32 57 -55 l56 -43 101 0 101 -1 -47 -25 c-27 -13 -48 -26 -48 -29 0 -3 21 -16 48 -29 l47 -24 -30 -7 c-107 -24 -190 -51 -260 -84 -81 -38 -177 -95 -205 -122 -8 -8 -28 -24 -44 -37 -16 -12 -55 -52 -89 -89 -211 -238 -308 -542 -294 -918 10 -248 66 -455 171 -629 171 -283 418 -452 756 -518 92 -18 338 -15 430 4 170 36 310 96 427 185 172 131 281 294 333 498 26 102 27 144 6 178 l-19 27 -265 -2 -265 -3 -12 -55 c-16 -77 -49 -136 -112 -197 -93 -91 -182 -124 -330 -124 -151 1 -243 38 -342 139 -46 47 -73 85 -98 141 -18 42 -38 83 -43 93 -5 9 -17 54 -27 100 -35 166 -17 483 32 563 7 11 18 36 24 55 29 92 134 206 235 255 124 60 311 67 429 16 128 -56 214 -188 250 -387 l13 -69 259 -3 259 -2 29 27 c33 32 33 29 -3 196 -44 208 -133 374 -274 512 -188 183 -411 265 -723 265 l-148 0 104 50 c129 62 186 68 213 20 56 -99 221 -92 277 12 11 22 21 56 21 76 0 50 -44 120 -86 138 -49 21 -123 18 -162 -6z"/>
 </g>

</svg>