<!DOCTYPE svg PUBLIC "-//W3C//DTD SVG 20010904//EN" "http://www.w3.org/TR/2001/REC-SVG-20010904/DTD/svg10.dtd">
<svg version="1.0" xmlns="http://www.w3.org/2000/svg" width="1600px" height="1600px" viewBox="0 0 16000 16000" preserveAspectRatio="xMidYMid meet">
<g id="layer101" fill="#b081d8" stroke="none">
 <path d="M7495 15939 c-590 -32 -1229 -147 -1835 -332 -253 -77 -652 -224 -815 -301 -29 -14 -57 -26 -60 -26 -13 0 -175 -80 -217 -106 -23 -16 -59 -37 -78 -47 -19 -10 -51 -29 -70 -41 -19 -13 -80 -49 -135 -81 -55 -32 -116 -68 -135 -80 -19 -12 -75 -45 -125 -75 -126 -74 -205 -132 -313 -227 -96 -84 -233 -234 -280 -307 -15 -22 -30 -43 -33 -46 -14 -11 -109 -190 -145 -270 -39 -90 -86 -240 -110 -355 -21 -102 -29 -399 -14 -537 12 -113 76 -390 104 -451 8 -18 29 -68 45 -112 17 -44 57 -132 89 -195 l57 -115 70 -35 c88 -44 556 -269 815 -392 127 -61 418 -201 555 -268 l99 -48 46 31 c25 17 47 33 50 37 8 9 118 56 180 75 118 39 295 18 430 -51 164 -82 288 -244 326 -426 19 -85 14 -225 -10 -301 -48 -151 -174 -306 -303 -370 -131 -66 -266 -88 -393 -67 -41 7 -81 16 -90 21 -8 4 -45 21 -81 37 -36 16 -76 38 -89 48 -77 62 -135 126 -174 193 -66 113 -81 172 -81 323 l0 128 -30 12 c-16 6 -144 67 -283 135 -140 68 -255 123 -257 123 -2 0 -84 39 -182 86 -98 47 -225 109 -283 136 -58 27 -164 79 -235 114 l-130 64 -1177 0 -1176 0 -16 -25 c-31 -47 -226 -434 -226 -448 0 -8 42 -34 98 -62 53 -26 156 -76 227 -111 l130 -64 228 0 c181 0 227 3 227 13 0 16 45 105 82 162 46 73 169 174 253 209 22 10 73 26 112 37 300 80 638 -112 732 -416 93 -300 -49 -620 -332 -749 -91 -42 -157 -56 -257 -56 -101 0 -167 14 -255 54 -135 62 -232 156 -301 290 l-39 76 -238 0 -239 0 -113 -55 c-125 -60 -281 -135 -510 -244 -82 -39 -161 -77 -174 -84 -28 -14 -43 -55 -97 -257 -60 -225 -154 -635 -154 -672 0 -5 236 -8 525 -8 l525 0 89 45 c49 25 91 45 94 45 3 0 111 52 241 115 130 63 238 115 240 115 2 0 82 38 177 84 96 46 224 107 284 135 61 29 140 67 177 84 37 18 68 38 68 45 0 9 67 12 299 12 l298 0 22 53 c40 96 109 184 200 255 82 64 188 108 298 122 245 32 502 -105 624 -330 44 -81 80 -129 161 -212 86 -88 117 -114 200 -171 102 -70 213 -125 327 -163 188 -63 200 -64 884 -64 l617 0 0 -285 0 -285 -850 0 -850 0 0 -395 0 -395 765 0 765 0 0 -265 0 -265 -765 0 -765 0 0 -340 0 -340 835 0 835 0 0 -290 0 -290 -589 0 c-630 0 -643 -1 -841 -55 -196 -54 -422 -195 -570 -353 -107 -115 -125 -139 -176 -238 -25 -49 -62 -110 -80 -136 -111 -150 -304 -248 -490 -248 -109 0 -233 30 -294 70 -14 10 -30 19 -37 21 -24 8 -119 94 -159 144 -41 50 -84 125 -103 178 l-11 27 -274 0 -273 0 -134 64 c-74 35 -214 102 -312 150 -98 47 -181 86 -183 86 -2 0 -88 41 -191 91 -104 50 -222 107 -263 126 -41 19 -134 64 -207 99 l-131 64 -501 0 c-394 0 -501 -3 -501 -12 1 -7 9 -51 19 -98 11 -47 28 -128 39 -180 35 -163 104 -427 148 -569 l29 -93 95 -45 c52 -25 154 -73 225 -108 72 -34 180 -86 240 -115 61 -28 136 -65 168 -81 l58 -29 232 0 232 0 22 58 c58 147 204 282 366 337 235 79 499 13 657 -162 76 -85 101 -127 143 -248 17 -48 21 -83 21 -175 0 -104 -3 -123 -32 -204 -67 -185 -220 -334 -407 -394 -61 -20 -224 -27 -297 -13 -85 17 -211 78 -277 134 -71 61 -153 171 -177 236 l-18 51 -233 0 -233 0 -205 -99 c-113 -55 -205 -104 -205 -109 0 -11 210 -427 235 -465 l17 -27 1154 0 1153 0 73 34 c40 18 152 72 248 118 96 47 218 106 270 131 98 46 239 114 515 246 88 43 193 93 232 112 59 27 72 37 67 52 -10 31 -6 199 6 252 31 140 142 297 269 380 111 73 173 89 336 90 126 0 147 -3 211 -26 151 -55 294 -185 355 -324 31 -69 59 -192 59 -256 0 -66 -28 -190 -60 -265 -66 -153 -239 -297 -408 -340 -78 -19 -223 -21 -297 -4 -68 15 -181 70 -235 113 l-44 36 -46 -24 c-25 -13 -99 -49 -165 -81 -136 -64 -308 -146 -505 -241 -74 -36 -180 -87 -235 -113 -55 -26 -167 -80 -250 -120 -333 -160 -294 -132 -377 -270 -155 -256 -268 -576 -299 -842 -13 -117 -7 -410 11 -503 59 -306 216 -628 403 -830 69 -75 268 -211 492 -338 258 -145 765 -407 788 -407 4 0 32 -12 64 -26 344 -158 866 -335 1273 -434 415 -100 754 -158 1145 -194 670 -63 1437 -38 2050 65 429 72 769 154 1155 277 212 68 459 158 565 206 28 13 61 27 75 31 13 4 57 23 97 41 40 19 76 34 79 34 24 0 555 273 749 385 173 100 474 289 485 305 3 4 26 20 51 36 141 89 475 351 719 563 85 74 259 239 386 366 246 245 367 379 569 630 31 39 63 79 72 89 51 63 158 210 313 431 90 128 237 366 373 605 100 176 265 506 322 645 16 39 32 75 36 80 14 20 139 346 197 515 102 295 194 617 252 885 16 77 36 169 44 205 13 57 49 277 76 455 39 260 70 741 70 1085 0 340 -34 859 -71 1085 -5 33 -21 130 -34 215 -14 85 -32 187 -40 225 -8 39 -26 122 -39 185 -98 462 -279 1026 -471 1463 -113 259 -290 607 -427 837 -27 47 -58 99 -68 115 -44 75 -124 200 -201 314 -138 203 -152 223 -250 351 -52 68 -103 135 -114 149 -31 41 -274 333 -285 341 -3 3 -55 59 -116 125 -201 221 -520 523 -769 729 -38 32 -79 65 -90 74 -248 205 -640 477 -920 639 -60 35 -117 68 -125 73 -112 71 -625 327 -757 379 -29 11 -60 25 -70 31 -66 39 -551 217 -783 287 -620 189 -1240 299 -1865 333 -217 11 -748 11 -970 -1z m-47 -5308 c67 -20 127 -69 148 -118 18 -42 18 -125 0 -166 -28 -66 -74 -91 -252 -137 -66 -17 -132 -36 -147 -42 -58 -23 -83 -91 -57 -150 27 -59 140 -92 230 -68 53 14 114 73 123 119 6 29 10 31 48 31 l42 0 -5 -43 c-8 -65 -49 -119 -120 -157 -55 -29 -71 -33 -144 -34 -165 -1 -274 84 -274 214 0 120 60 160 338 225 97 23 142 63 142 124 0 94 -61 140 -185 141 -38 0 -88 -5 -110 -11 -54 -15 -101 -65 -116 -122 -11 -46 -12 -47 -50 -47 -38 0 -39 1 -39 34 0 74 55 152 137 195 65 34 203 40 291 12z m843 -8 c41 -18 106 -75 148 -128 24 -30 52 -125 58 -197 16 -179 -62 -331 -204 -399 -55 -26 -79 -32 -142 -33 -156 -2 -276 79 -336 226 -27 65 -30 84 -29 173 0 94 2 105 37 179 50 106 120 168 222 197 54 15 196 5 246 -18z m846 12 c97 -29 185 -136 200 -242 l6 -43 -47 0 c-44 0 -46 1 -46 29 0 17 -4 33 -10 36 -5 3 -10 13 -10 21 0 29 -55 94 -96 114 -54 27 -163 27 -219 1 -89 -41 -135 -127 -143 -263 -9 -154 32 -251 132 -316 36 -24 51 -27 121 -27 69 0 85 4 120 26 48 32 68 54 85 97 12 30 16 32 60 32 45 0 48 -1 42 -22 -6 -23 -30 -70 -59 -114 -8 -13 -50 -41 -92 -61 -69 -33 -84 -37 -156 -36 -126 1 -233 59 -290 157 -31 53 -65 178 -65 236 0 61 35 195 62 238 21 35 84 98 117 117 59 34 205 45 288 20z m523 -370 l0 -375 -45 0 -45 0 0 375 0 375 45 0 45 0 0 -375z m770 335 l0 -40 -215 0 -215 0 0 -135 0 -135 200 0 200 0 0 -40 0 -40 -200 0 -200 0 0 -120 0 -120 210 0 210 0 0 -40 0 -40 -255 0 -255 0 0 375 0 375 260 0 260 0 0 -40z m470 -295 l0 -335 130 0 130 0 0 -40 0 -40 -300 0 -300 0 0 40 0 40 125 0 125 0 0 335 0 335 45 0 45 0 0 -335z m730 175 c0 -88 4 -160 8 -160 5 0 13 -10 19 -23 10 -22 180 -286 235 -364 l29 -43 -53 0 c-49 0 -55 3 -74 33 -23 35 -152 245 -170 278 -23 41 -33 45 -52 19 -16 -23 -154 -242 -190 -302 -15 -25 -23 -28 -70 -28 l-53 0 28 48 c15 26 30 49 34 52 3 3 20 28 37 55 17 28 65 101 106 164 l76 115 0 158 0 158 45 0 45 0 0 -160z m-3357 -820 c247 -29 521 -139 692 -279 124 -102 258 -271 334 -421 70 -138 134 -358 148 -507 l6 -63 -330 0 -330 0 -11 68 c-17 99 -74 253 -123 330 -139 220 -353 323 -640 308 -203 -10 -350 -68 -490 -193 -202 -179 -319 -499 -319 -868 0 -362 103 -670 287 -863 83 -86 227 -169 345 -197 99 -24 269 -29 365 -12 82 15 243 83 293 123 138 111 202 201 245 339 l22 70 332 3 333 2 -6 -27 c-2 -16 -7 -46 -11 -68 -13 -82 -79 -272 -123 -355 -149 -279 -396 -483 -710 -589 -153 -52 -263 -71 -443 -78 -473 -19 -857 124 -1162 430 -202 204 -357 516 -420 847 -19 100 -21 150 -22 375 0 305 15 407 89 622 41 117 118 291 135 303 4 3 19 25 33 50 89 154 308 366 463 449 22 12 47 26 55 31 23 15 159 76 210 94 72 25 248 65 330 75 107 12 320 13 423 1z m3717 -345 l0 -285 -850 0 -850 0 0 -395 0 -395 765 0 765 0 0 -265 0 -265 -765 0 -765 0 0 -340 0 -340 835 0 835 0 0 -290 0 -290 -1175 0 -1175 0 0 1575 0 1575 1190 0 1190 0 0 -285z"/>
 <path d="M8044 10559 c-55 -16 -121 -91 -142 -162 -33 -106 -35 -140 -15 -224 22 -96 62 -157 127 -198 44 -27 58 -30 125 -30 59 0 85 5 118 23 52 27 118 109 135 165 17 61 14 213 -6 266 -23 61 -82 130 -130 152 -45 20 -156 24 -212 8z"/>
 <path d="M2693 13931 c-258 -228 -540 -513 -730 -737 -40 -46 -180 -217 -242 -294 -29 -37 -196 -260 -221 -296 -75 -108 -250 -373 -250 -378 0 -3 394 -6 875 -6 481 0 875 2 875 5 0 3 -43 105 -85 200 -50 115 -107 323 -156 571 -19 101 -29 326 -19 469 13 181 64 441 105 530 17 38 29 85 21 85 -3 0 -81 -67 -173 -149z"/>
 <path d="M5263 11371 c-149 -55 -241 -202 -231 -367 11 -175 153 -315 336 -332 55 -5 134 14 202 49 53 26 116 97 147 164 24 52 28 72 28 150 0 83 -3 95 -35 158 -38 73 -93 128 -170 167 -64 33 -204 38 -277 11z"/>
 <path d="M2190 11296 c-101 -30 -154 -68 -208 -148 -44 -65 -62 -124 -62 -203 0 -253 251 -421 492 -329 191 73 280 301 192 490 -28 60 -130 156 -189 177 -67 24 -169 30 -225 13z"/>
 <path d="M611 10988 c-5 -13 -18 -44 -30 -70 -19 -44 -19 -48 -3 -48 9 1 51 18 92 39 l74 38 -62 32 -62 31 -9 -22z"/>
 <path d="M3680 10271 c-115 -37 -184 -91 -230 -181 -89 -174 -15 -402 159 -487 50 -25 67 -28 156 -28 124 0 179 19 251 87 179 169 139 471 -76 578 -54 28 -134 50 -175 49 -16 0 -55 -8 -85 -18z"/>
 <path d="M2690 9725 c-22 -13 -128 -65 -450 -218 -52 -24 -151 -72 -220 -105 -69 -33 -163 -78 -210 -100 -47 -21 -148 -70 -225 -107 -77 -37 -177 -85 -221 -106 l-81 -39 -592 0 c-464 0 -593 -3 -596 -12 -10 -33 -53 -537 -62 -735 l-6 -133 970 0 969 0 24 58 c54 133 160 245 300 317 59 31 201 65 268 65 68 0 194 -28 258 -57 147 -67 260 -190 325 -353 32 -81 34 -91 34 -210 0 -107 -4 -135 -24 -190 -47 -130 -101 -210 -193 -287 -247 -207 -601 -193 -832 34 -58 57 -122 152 -138 205 l-11 38 -975 0 -975 0 6 -127 c10 -214 51 -685 63 -725 5 -17 41 -18 573 -18 l568 0 69 -34 c38 -18 110 -52 159 -76 50 -23 158 -75 240 -115 83 -40 182 -87 220 -105 93 -43 218 -102 395 -187 80 -39 189 -91 242 -117 l97 -46 239 0 239 0 39 78 c43 86 173 228 234 256 148 68 336 223 448 371 45 60 162 261 162 280 0 5 6 22 14 36 25 48 46 124 71 255 24 121 25 147 25 485 0 340 -1 363 -25 481 -31 153 -33 161 -85 283 -48 114 -72 155 -152 264 -103 140 -262 283 -383 344 -118 60 -234 185 -285 310 l-24 57 -230 0 c-185 0 -236 -3 -256 -15z"/>
 <path d="M2497 8340 c-196 -33 -328 -229 -287 -426 25 -119 86 -197 197 -250 65 -31 82 -36 152 -36 266 0 435 267 325 513 -29 65 -96 135 -161 168 -33 16 -153 44 -173 40 -3 -1 -27 -5 -53 -9z"/>
 <path d="M3630 6387 c-93 -27 -176 -98 -226 -192 -27 -52 -29 -65 -29 -158 1 -92 3 -107 29 -156 62 -118 170 -191 293 -199 89 -6 151 9 225 54 138 84 201 275 143 432 -27 74 -102 154 -179 192 -75 37 -182 48 -256 27z"/>
 <path d="M2145 5367 c-136 -36 -227 -133 -260 -280 -14 -60 -14 -74 0 -132 8 -36 23 -82 34 -103 30 -59 100 -125 166 -158 54 -26 70 -29 155 -29 87 0 100 3 156 32 68 35 137 106 168 173 16 36 20 65 21 150 0 95 -3 110 -28 161 -72 147 -251 227 -412 186z"/>
 <path d="M5227 5276 c-86 -31 -164 -101 -202 -183 -68 -143 -44 -292 65 -407 72 -76 149 -109 255 -110 70 -1 89 3 149 32 77 36 145 101 178 172 29 63 37 209 14 278 -33 98 -134 194 -231 221 -55 15 -182 13 -228 -3z"/>
 <path d="M580 5060 c0 -17 34 -80 43 -80 5 0 25 10 45 22 l35 21 -53 24 c-58 25 -70 28 -70 13z"/>
 <path d="M1261 3729 c6 -12 40 -64 75 -118 35 -53 72 -107 81 -121 217 -326 554 -738 858 -1049 143 -147 446 -434 451 -428 2 1 -8 57 -22 122 -14 66 -30 154 -35 195 -13 100 -13 407 0 495 22 149 63 331 102 453 45 136 51 151 140 341 33 68 59 125 59 127 0 2 -387 4 -860 4 l-861 0 12 -21z"/>
 </g>

</svg>