<!DOCTYPE svg PUBLIC "-//W3C//DTD SVG 20010904//EN" "http://www.w3.org/TR/2001/REC-SVG-20010904/DTD/svg10.dtd">
<svg version="1.0" xmlns="http://www.w3.org/2000/svg" width="1600px" height="1600px" viewBox="0 0 16000 16000" preserveAspectRatio="xMidYMid meet">
<g id="layer101" fill="#ffffff" stroke="none">
 <path d="M5130 9053 c-228 -36 -405 -110 -519 -217 -121 -114 -201 -302 -201 -475 l0 -71 233 0 c269 0 257 -4 275 94 7 32 25 81 41 110 54 93 177 146 341 146 197 0 320 -73 320 -190 0 -99 -78 -155 -289 -210 -64 -17 -138 -37 -166 -45 -27 -8 -79 -22 -115 -31 -102 -25 -260 -90 -325 -133 -111 -73 -187 -167 -226 -283 -18 -55 -21 -80 -17 -194 l4 -132 43 -88 c97 -195 274 -319 525 -369 71 -14 121 -16 235 -12 138 4 295 28 316 48 5 5 16 9 25 9 19 0 126 53 150 75 9 8 21 15 27 15 6 0 42 34 81 75 69 72 142 192 142 233 0 10 5 23 11 29 6 6 14 50 16 97 5 81 4 88 -17 111 l-23 25 -223 0 c-137 0 -225 -4 -229 -10 -3 -5 -11 -38 -16 -72 -21 -132 -85 -188 -236 -208 -146 -19 -245 7 -308 81 -20 24 -25 41 -25 83 0 44 4 56 28 78 15 14 36 30 47 36 29 15 279 86 425 121 256 61 377 116 480 220 105 106 153 208 166 350 16 170 -62 379 -183 492 -102 96 -281 176 -457 204 -82 13 -293 18 -356 8z"/>
 <path d="M9125 9053 c-120 -16 -298 -82 -405 -152 -131 -84 -273 -251 -331 -388 -11 -26 -24 -57 -29 -68 -19 -42 -48 -153 -60 -227 -8 -51 -11 -138 -7 -260 4 -157 9 -196 31 -277 15 -52 30 -99 35 -105 5 -6 14 -29 21 -51 7 -22 34 -76 61 -120 104 -174 230 -287 414 -370 33 -15 67 -31 76 -36 44 -21 237 -49 344 -49 110 0 287 26 331 48 11 5 51 24 89 42 143 66 257 165 340 295 48 75 102 221 112 304 5 45 3 55 -17 76 l-23 25 -223 0 c-237 0 -234 1 -234 -49 0 -10 -16 -49 -34 -87 -75 -150 -230 -222 -418 -194 -108 16 -161 41 -234 115 -66 67 -109 152 -141 282 -27 107 -24 325 5 428 65 226 188 347 379 375 239 33 396 -86 452 -345 l18 -80 220 -3 c213 -2 221 -2 248 19 26 21 27 25 21 81 -13 111 -61 256 -119 361 -149 265 -440 420 -779 416 -62 -1 -126 -4 -143 -6z"/>
 <path d="M2210 9005 c-120 -27 -195 -54 -273 -99 -275 -158 -431 -435 -464 -823 l-5 -63 -544 0 -544 0 0 420 0 420 595 0 595 0 0 55 0 55 -665 0 -665 0 0 -965 0 -965 655 0 655 0 0 55 0 55 -585 0 -585 0 0 380 0 380 548 0 c432 0 549 -3 549 -12 0 -7 8 -58 16 -113 54 -329 231 -578 502 -705 142 -67 222 -83 405 -83 188 0 285 23 434 104 135 73 264 235 316 397 43 134 44 132 -38 132 l-68 0 -18 -70 c-54 -210 -249 -389 -471 -431 -91 -17 -251 -15 -342 5 -117 25 -270 111 -353 198 -37 38 -120 152 -120 163 0 5 -6 16 -14 24 -13 16 -48 106 -79 206 -9 28 -21 103 -27 168 -36 374 101 712 359 885 144 96 324 137 507 115 73 -9 104 -19 190 -62 83 -41 117 -65 177 -126 117 -116 196 -274 212 -422 l7 -63 74 0 74 0 -6 33 c-19 109 -30 151 -61 231 -77 199 -223 365 -402 455 -105 54 -189 73 -336 77 -99 3 -159 -1 -205 -11z"/>
 <path d="M10252 8987 l-22 -23 0 -961 0 -960 21 -19 c19 -17 41 -19 229 -22 175 -3 214 -1 239 13 l31 16 0 973 c0 930 -1 974 -18 989 -16 15 -48 17 -239 17 -217 0 -220 0 -241 -23z"/>
 <path d="M10918 8991 c-17 -17 -18 -77 -18 -984 l0 -966 26 -20 26 -21 1703 0 c1606 0 1704 1 1722 18 17 14 123 185 200 322 11 19 55 93 97 164 42 70 76 130 76 132 0 2 11 19 24 38 l24 36 87 -148 c48 -81 100 -167 115 -192 67 -111 157 -264 178 -303 12 -23 30 -48 39 -54 12 -10 80 -13 255 -13 l239 0 24 26 c14 15 25 31 25 35 0 5 -21 43 -47 86 -65 105 -63 102 -108 178 -22 37 -47 79 -56 93 -9 15 -76 126 -149 247 -72 121 -142 236 -154 255 -13 19 -62 101 -109 181 l-87 145 0 362 c0 328 -2 364 -17 382 -17 19 -29 20 -239 20 -201 0 -222 -2 -237 -18 -15 -17 -17 -58 -17 -386 0 -343 -1 -370 -19 -394 -10 -15 -46 -74 -81 -132 -34 -58 -73 -121 -85 -140 -13 -19 -49 -80 -81 -134 -33 -55 -82 -138 -111 -185 -28 -47 -68 -115 -88 -149 l-37 -64 -22 21 c-21 20 -32 21 -289 21 l-267 0 0 755 c0 679 -2 758 -16 780 l-16 25 -226 0 c-202 0 -226 -2 -238 -17 -11 -15 -13 -162 -14 -780 l0 -763 -765 0 -765 0 0 155 0 155 443 0 444 0 21 23 c21 22 22 32 22 194 l0 172 -26 20 c-26 21 -37 21 -465 21 l-439 0 0 185 0 185 498 0 499 0 21 23 c21 22 22 32 22 203 0 176 -1 181 -23 202 l-23 22 -740 -1 c-694 0 -740 -1 -756 -18z"/>
 <path d="M3254 8971 c-2 -2 -4 -438 -4 -968 l0 -963 655 0 655 0 0 55 0 55 -590 0 -590 0 0 380 0 380 555 0 555 0 0 55 0 55 -555 0 -555 0 0 420 0 420 595 0 595 0 0 55 0 55 -656 2 c-361 2 -658 1 -660 -1z"/>
 <path d="M6728 8949 c-45 -23 -48 -41 -10 -56 23 -9 17 -11 -47 -12 -71 -1 -77 -3 -128 -42 -29 -23 -53 -45 -53 -50 0 -5 131 -9 293 -9 l292 0 16 -28 c34 -59 136 -80 195 -40 42 29 64 67 64 113 0 133 -165 193 -248 89 -39 -50 -85 -47 -204 11 -51 25 -101 45 -113 45 -11 -1 -37 -10 -57 -21z"/>
 <path d="M7655 8841 c-47 -28 -66 -56 -72 -101 l-6 -42 -145 -69 -144 -69 -504 0 -504 0 -20 -32 c-11 -18 -20 -39 -20 -45 0 -10 116 -13 548 -13 l549 0 147 70 c143 68 147 70 176 55 89 -46 200 20 200 118 0 112 -115 184 -205 128z"/>
 <path d="M7932 8510 c-18 -11 -41 -34 -50 -50 -16 -28 -21 -30 -79 -30 -56 0 -75 -6 -200 -67 l-138 -68 -655 -5 -654 -5 -9 -32 c-20 -68 -68 -63 671 -63 367 0 672 4 678 9 5 4 73 38 152 75 174 81 196 83 251 24 38 -42 42 -43 101 -43 59 0 63 1 101 42 33 36 39 49 39 85 0 111 -117 183 -208 128z"/>
 <path d="M8009 8097 c-19 -12 -38 -33 -44 -45 l-10 -22 -922 0 -923 0 0 -45 0 -45 925 0 c785 0 925 -2 925 -14 0 -8 16 -28 35 -45 31 -27 43 -31 95 -31 54 0 64 3 97 33 31 29 37 41 40 88 5 64 -9 94 -56 126 -46 31 -116 31 -162 0z"/>
 <path d="M6135 7753 c3 -10 9 -30 12 -45 l6 -28 652 0 652 0 158 -75 c131 -63 165 -75 207 -75 46 0 53 -3 87 -41 32 -36 43 -42 86 -46 86 -7 155 57 155 145 0 36 -6 49 -38 83 -31 33 -46 42 -83 46 -57 6 -115 -18 -138 -59 -26 -46 -68 -39 -239 42 l-148 70 -688 0 c-651 0 -688 -1 -681 -17z"/>
 <path d="M6230 7500 c0 -6 9 -29 20 -50 l20 -40 520 0 519 0 146 -70 145 -70 0 -37 c0 -29 8 -44 44 -79 38 -39 49 -44 87 -44 53 0 102 27 129 72 69 113 -63 254 -180 193 -28 -14 -33 -13 -127 31 -54 25 -124 59 -156 75 l-58 29 -554 0 c-378 0 -555 -3 -555 -10z"/>
 <path d="M7145 7266 c-16 -8 -39 -28 -50 -45 l-20 -31 -297 0 c-183 0 -298 -4 -298 -10 0 -5 21 -25 46 -45 46 -35 48 -35 148 -35 l101 -1 -47 -22 c-26 -12 -48 -27 -48 -33 0 -6 23 -21 51 -33 l50 -23 114 56 c124 61 179 71 190 36 3 -10 20 -31 36 -45 41 -34 132 -36 173 -4 79 62 72 182 -15 233 -33 19 -93 20 -134 2z"/>
 </g>

</svg>