<!DOCTYPE svg PUBLIC "-//W3C//DTD SVG 20010904//EN" "http://www.w3.org/TR/2001/REC-SVG-20010904/DTD/svg10.dtd">
<svg version="1.0" xmlns="http://www.w3.org/2000/svg" width="1500px" height="1500px" viewBox="0 0 15000 15000" preserveAspectRatio="xMidYMid meet">
<g id="layer101" fill="#600393" stroke="none">
 <path d="M7455 14574 c-257 -25 -537 -68 -670 -103 -258 -69 -434 -131 -618 -219 -287 -138 -475 -279 -609 -456 -73 -97 -100 -150 -135 -263 l-27 -88 -4 -417 -3 -418 -27 -7 c-14 -3 -103 6 -196 21 -306 47 -644 33 -1041 -45 -202 -39 -314 -70 -475 -131 -298 -113 -492 -226 -664 -388 -111 -105 -175 -203 -215 -334 -20 -64 -21 -89 -21 -453 l0 -385 -32 6 c-170 34 -253 41 -518 41 -209 0 -307 -4 -410 -18 -720 -97 -1297 -429 -1395 -802 -13 -53 -15 -446 -15 -3532 l0 -3472 23 -64 c13 -36 36 -86 52 -113 30 -51 115 -148 122 -140 3 3 -9 25 -27 51 -17 25 -42 69 -55 98 -26 55 -59 186 -51 195 7 6 12 -9 25 -83 15 -84 70 -189 136 -262 31 -34 56 -65 55 -68 0 -3 0 -9 0 -13 0 -12 91 -72 170 -114 60 -32 280 -128 480 -211 47 -20 153 -66 235 -102 137 -61 220 -97 525 -227 58 -25 131 -57 163 -72 31 -14 85 -38 120 -52 34 -14 159 -69 277 -121 118 -53 256 -113 305 -133 50 -21 115 -49 145 -63 31 -14 78 -34 105 -45 28 -11 79 -34 115 -50 36 -16 193 -85 350 -152 281 -121 333 -144 458 -201 35 -16 66 -29 68 -29 5 0 21 -7 144 -62 49 -22 60 -26 135 -58 57 -24 109 -48 145 -65 14 -7 61 -27 105 -44 44 -18 95 -40 114 -49 19 -9 37 -17 40 -17 3 -1 21 -9 39 -18 17 -10 32 -15 32 -11 0 3 17 -5 37 -18 21 -12 38 -21 38 -20 0 2 32 -11 70 -29 39 -17 75 -32 80 -33 6 -1 25 -10 42 -19 18 -10 35 -17 38 -18 3 0 26 -9 52 -21 35 -16 74 -23 145 -26 91 -4 100 -2 148 24 78 42 150 143 167 231 4 21 9 213 12 427 l6 390 260 105 c143 58 262 109 263 113 2 4 9 8 14 8 6 0 8 -3 5 -7 -7 -6 59 -38 263 -126 58 -25 236 -103 395 -173 160 -70 324 -139 365 -154 75 -27 512 -211 605 -255 28 -12 127 -56 220 -95 94 -40 174 -76 179 -81 6 -5 56 -9 111 -9 101 0 102 0 161 38 73 47 119 99 153 172 l26 55 5 469 c4 402 7 470 20 478 8 5 140 60 293 123 225 93 282 113 298 105 10 -6 94 -43 187 -81 496 -210 657 -280 772 -336 52 -25 174 -79 270 -118 210 -87 438 -184 695 -295 416 -180 452 -193 533 -193 138 1 267 88 327 222 14 31 31 65 38 76 9 15 13 160 17 549 l5 529 329 138 c181 77 335 139 342 139 8 0 37 -11 66 -25 58 -26 248 -108 507 -216 90 -38 169 -73 175 -78 6 -4 40 -19 76 -33 36 -15 119 -52 185 -83 66 -32 172 -78 235 -103 101 -41 124 -46 190 -46 124 0 235 58 296 155 l24 39 0 4511 0 4512 -20 33 c-23 37 -140 142 -185 167 -16 9 -61 30 -100 48 -38 17 -114 51 -167 75 -54 24 -144 65 -200 90 -57 25 -170 74 -253 109 -388 162 -947 404 -1125 487 -47 21 -94 43 -105 48 -11 6 -96 42 -190 81 -93 39 -242 102 -330 139 -88 38 -236 101 -330 140 -93 40 -174 76 -180 80 -5 5 -46 22 -89 40 -44 17 -127 54 -184 81 -57 28 -190 87 -296 131 -105 44 -263 111 -351 148 -88 38 -230 98 -315 134 -85 36 -163 70 -172 75 -9 6 -70 33 -135 60 -65 27 -138 61 -163 75 -25 14 -127 59 -225 99 -288 119 -569 238 -580 246 -13 10 -120 52 -270 108 -153 56 -278 87 -474 120 -138 23 -189 26 -446 28 -159 2 -308 1 -330 -1z m-5320 -3714 c-3 -5 -30 -9 -58 -8 l-52 1 45 7 c69 11 72 11 65 0z m183 3 c-27 -2 -69 -2 -95 0 -27 2 -5 3 47 3 52 0 74 -1 48 -3z m171 -9 c2 -2 -14 -4 -37 -4 -22 0 -44 5 -47 10 -6 10 73 3 84 -6z m-494 -4 c-3 -5 -21 -9 -38 -9 l-32 1 30 8 c43 11 47 11 40 0z m584 -6 c2 -2 -10 -4 -27 -4 -17 0 -34 4 -37 10 -5 9 53 3 64 -6z m-684 -4 c-3 -5 -16 -10 -28 -9 -21 0 -21 1 -2 9 28 12 37 12 30 0z m740 0 c18 -8 17 -9 -7 -9 -15 -1 -30 4 -33 9 -7 12 12 12 40 0z m-810 -10 c-3 -5 -16 -10 -28 -10 -18 0 -19 2 -7 10 20 13 43 13 35 0z m870 0 c19 -8 19 -9 -2 -9 -12 -1 -25 4 -28 9 -7 12 2 12 30 0z m-999 -19 c-3 -4 -34 -14 -68 -20 -293 -57 -589 -173 -795 -312 -41 -27 -77 -49 -79 -46 -6 6 146 103 237 151 179 95 374 160 707 235 2 1 1 -3 -2 -8z m-971 -411 c-10 -11 -23 -20 -29 -20 -6 1 0 10 13 20 30 26 39 26 16 0z m-169 -182 c-51 -77 -84 -168 -93 -256 -3 -34 -10 -65 -14 -68 -12 -7 -11 1 7 97 17 92 56 186 105 254 49 68 45 47 -5 -27z m2271 -6546 c20 -40 49 -85 65 -100 16 -15 45 -49 64 -77 l35 -50 -60 62 c-32 34 -76 92 -96 128 -37 66 -86 200 -84 233 0 9 9 -14 20 -53 11 -38 36 -103 56 -143z m-618 -156 c-10 -8 -129 -13 -123 -5 3 5 33 9 66 9 34 0 59 -2 57 -4z m205 -4 c3 -5 -18 -7 -47 -5 -75 6 -81 11 -15 12 31 1 59 -3 62 -7z m-365 -6 c-10 -9 -79 -14 -74 -5 4 5 22 9 42 9 20 0 34 -2 32 -4z m476 -6 c4 -6 -6 -7 -27 -3 -44 8 -48 13 -10 13 17 0 34 -4 37 -10z m-565 -4 c0 -2 -13 -6 -29 -8 -17 -2 -28 -1 -25 4 5 8 54 12 54 4z m-85 -16 c-28 -12 -37 -12 -30 0 3 6 16 10 28 9 21 0 21 -1 2 -9z m-108 -16 c-3 -3 -22 -10 -42 -14 -21 -5 -34 -5 -29 0 14 13 84 27 71 14z m1028 -19 c81 -24 442 -178 459 -195 5 -5 -71 26 -170 69 -98 43 -217 91 -264 106 -47 14 -94 30 -105 35 -39 17 0 10 80 -15z m-1117 0 c-3 -3 -47 -17 -97 -31 -164 -45 -376 -135 -449 -192 l-24 -18 129 -56 c70 -31 349 -151 618 -268 270 -117 607 -263 750 -325 143 -62 284 -123 313 -135 29 -13 51 -25 49 -27 -3 -2 -139 54 -303 126 -165 71 -420 181 -569 245 -753 325 -995 432 -995 441 0 10 88 65 169 105 119 59 439 165 409 135z m1519 -1151 c-5 -5 -189 75 -202 87 -5 5 39 -12 98 -37 59 -26 106 -48 104 -50z m256 -106 c65 -28 116 -52 114 -54 -5 -5 -330 135 -342 147 -5 6 17 -1 50 -16 33 -14 113 -49 178 -77z m2197 27 c17 -9 30 -18 30 -21 0 -4 -59 23 -69 32 -10 9 13 3 39 -11z m-1842 -180 c34 -15 61 -29 59 -31 -5 -5 -260 105 -272 117 -9 9 44 -12 213 -86z m2212 20 c17 -9 30 -18 30 -21 0 -4 -59 23 -69 32 -10 9 13 3 39 -11z m-1923 -151 c-5 -5 -189 75 -202 87 -5 5 39 -12 98 -37 59 -26 106 -48 104 -50z m2153 51 c14 -8 21 -14 15 -14 -5 0 -21 6 -35 14 -14 8 -20 14 -15 14 6 0 21 -6 35 -14z m-1614 -280 c274 -118 504 -215 511 -215 7 0 139 54 293 120 154 66 285 120 292 119 8 0 8 -3 -2 -6 -17 -6 -450 -194 -527 -228 l-52 -24 -78 34 c-43 18 -184 79 -313 135 -129 56 -296 128 -370 160 -204 88 -270 119 -270 125 0 3 4 4 9 1 5 -3 233 -103 507 -221z"/>
 </g>
<g id="layer102" fill="#e4b429" stroke="none">
 <path d="M7455 14574 c-257 -25 -537 -68 -670 -103 -258 -69 -434 -131 -618 -219 -287 -138 -475 -279 -609 -456 -73 -97 -100 -150 -135 -263 l-27 -88 -4 -417 -3 -418 -27 -7 c-14 -3 -103 6 -196 21 -306 47 -644 33 -1041 -45 -202 -39 -314 -70 -475 -131 -298 -113 -492 -226 -664 -388 -111 -105 -175 -203 -215 -334 -20 -64 -21 -89 -21 -453 l0 -385 -32 6 c-170 34 -253 41 -518 41 -209 0 -307 -4 -410 -18 -720 -97 -1297 -429 -1395 -802 -13 -53 -15 -446 -15 -3532 l0 -3472 23 -64 c13 -36 36 -86 52 -113 30 -51 115 -148 122 -140 3 3 -9 25 -27 51 -17 25 -42 69 -55 98 -26 55 -59 186 -51 195 7 6 12 -9 25 -83 15 -85 70 -189 138 -264 38 -43 49 -60 33 -51 -25 13 5 -16 75 -73 55 -45 257 -140 575 -272 58 -24 173 -74 255 -110 83 -37 206 -91 275 -120 190 -81 358 -154 420 -182 30 -14 96 -42 145 -63 74 -31 372 -161 490 -215 17 -7 59 -25 95 -40 36 -15 83 -35 105 -46 22 -10 68 -29 102 -43 35 -15 87 -37 115 -50 66 -30 220 -97 503 -219 121 -52 250 -109 288 -126 37 -17 70 -31 72 -31 3 0 27 -10 53 -21 52 -24 102 -46 174 -78 26 -12 49 -21 53 -21 3 0 36 -14 73 -31 113 -53 164 -76 237 -104 39 -15 79 -32 90 -38 11 -6 22 -12 25 -12 3 -1 19 -7 35 -14 17 -7 31 -12 33 -12 1 1 17 -6 35 -16 17 -9 34 -17 37 -18 6 -1 94 -42 133 -62 15 -8 27 -11 27 -8 0 4 16 -3 35 -15 19 -12 35 -18 35 -15 0 4 6 3 13 -3 60 -50 244 -69 322 -33 81 37 164 147 182 241 4 19 9 210 12 424 l6 390 262 105 c145 58 261 110 260 114 -2 7 -118 59 -952 420 -198 85 -652 282 -1010 437 -357 155 -754 327 -882 383 -133 57 -230 104 -226 110 3 6 1 7 -5 3 -7 -4 -74 20 -149 53 -155 67 -221 92 -306 116 -32 9 -56 19 -54 22 10 10 178 -48 322 -112 82 -36 150 -64 151 -62 2 2 -23 22 -55 45 -105 77 -245 221 -286 295 -38 68 -86 202 -84 235 0 9 9 -14 20 -53 20 -68 75 -191 104 -229 28 -37 25 -9 -5 55 -65 140 -60 -173 -60 4013 0 4192 -5 3894 62 4053 112 271 461 521 944 677 194 62 382 103 637 138 233 31 604 31 796 0 74 -12 136 -22 137 -22 2 0 4 -1744 4 -3876 0 -2681 3 -3897 11 -3947 13 -92 33 -155 77 -242 38 -76 117 -185 134 -185 6 0 3 10 -6 23 -28 39 -93 170 -109 222 -9 28 -21 82 -26 122 -15 99 -15 8560 -1 8688 21 183 75 314 184 450 220 276 704 532 1231 651 596 136 1101 148 1592 38 213 -47 340 -97 1198 -469 969 -420 2918 -1265 3545 -1537 647 -281 1006 -437 1115 -483 55 -24 127 -55 160 -70 l60 -27 -25 27 c-28 30 -52 44 -155 91 -401 182 -473 213 -630 279 -388 162 -947 404 -1125 487 -47 21 -94 43 -105 48 -11 6 -96 42 -190 81 -93 39 -242 102 -330 139 -88 38 -236 101 -330 140 -93 40 -174 76 -180 80 -5 5 -46 22 -89 40 -44 17 -127 54 -184 81 -57 28 -190 87 -296 131 -105 44 -263 111 -351 148 -88 38 -230 98 -315 134 -85 36 -163 70 -172 75 -9 6 -70 33 -135 60 -65 27 -138 61 -163 75 -25 14 -127 59 -225 99 -288 119 -569 238 -580 246 -13 10 -120 52 -270 108 -153 56 -278 87 -474 120 -138 23 -189 26 -446 28 -159 2 -308 1 -330 -1z m-5320 -3714 c-3 -5 -30 -9 -58 -8 l-52 1 45 7 c69 11 72 11 65 0z m183 3 c-27 -2 -69 -2 -95 0 -27 2 -5 3 47 3 52 0 74 -1 48 -3z m171 -9 c2 -2 -14 -4 -37 -4 -22 0 -44 5 -47 10 -6 10 73 3 84 -6z m-494 -4 c-3 -5 -21 -9 -38 -9 l-32 1 30 8 c43 11 47 11 40 0z m584 -6 c2 -2 -10 -4 -27 -4 -17 0 -34 4 -37 10 -5 9 53 3 64 -6z m-684 -4 c-3 -5 -16 -10 -28 -9 -21 0 -21 1 -2 9 28 12 37 12 30 0z m740 0 c18 -8 17 -9 -7 -9 -15 -1 -30 4 -33 9 -7 12 12 12 40 0z m-810 -10 c-3 -5 -16 -10 -28 -10 -18 0 -19 2 -7 10 20 13 43 13 35 0z m870 0 c19 -8 19 -9 -2 -9 -12 -1 -25 4 -28 9 -7 12 2 12 30 0z m-999 -19 c-3 -4 -34 -14 -68 -20 -293 -57 -589 -173 -795 -312 -41 -27 -77 -49 -79 -46 -6 6 146 103 237 151 179 95 374 160 707 235 2 1 1 -3 -2 -8z m-971 -411 c-10 -11 -23 -20 -29 -20 -6 1 0 10 13 20 30 26 39 26 16 0z m-169 -182 c-51 -77 -84 -168 -93 -256 -3 -34 -10 -65 -14 -68 -12 -7 -11 1 7 97 17 92 56 186 105 254 49 68 45 47 -5 -27z m1653 -6702 c-10 -8 -129 -13 -123 -5 3 5 33 9 66 9 34 0 59 -2 57 -4z m205 -4 c3 -5 -18 -7 -47 -5 -75 6 -81 11 -15 12 31 1 59 -3 62 -7z m-365 -6 c-10 -9 -79 -14 -74 -5 4 5 22 9 42 9 20 0 34 -2 32 -4z m476 -6 c4 -6 -6 -7 -27 -3 -44 8 -48 13 -10 13 17 0 34 -4 37 -10z m-565 -4 c0 -2 -13 -6 -29 -8 -17 -2 -28 -1 -25 4 5 8 54 12 54 4z m-85 -16 c-28 -12 -37 -12 -30 0 3 6 16 10 28 9 21 0 21 -1 2 -9z m-108 -16 c-3 -3 -22 -10 -42 -14 -21 -5 -34 -5 -29 0 14 13 84 27 71 14z m-89 -19 c-3 -3 -47 -17 -97 -31 -164 -45 -376 -135 -449 -192 l-24 -18 129 -56 c70 -31 349 -151 618 -268 270 -117 607 -263 750 -325 143 -62 284 -123 313 -135 29 -13 51 -25 49 -27 -3 -2 -139 54 -303 126 -165 71 -420 181 -569 245 -753 325 -995 432 -995 441 0 10 88 65 169 105 119 59 439 165 409 135z m1519 -1151 c-5 -5 -189 75 -202 87 -5 5 39 -12 98 -37 59 -26 106 -48 104 -50z m256 -106 c65 -28 116 -52 114 -54 -5 -5 -330 135 -342 147 -5 6 17 -1 50 -16 33 -14 113 -49 178 -77z m355 -153 c34 -15 61 -29 59 -31 -5 -5 -260 105 -272 117 -9 9 44 -12 213 -86z m289 -131 c-5 -5 -189 75 -202 87 -5 5 39 -12 98 -37 59 -26 106 -48 104 -50z m539 -229 c274 -118 504 -215 511 -215 7 0 139 54 293 120 154 66 285 120 292 119 8 0 8 -3 -2 -6 -17 -6 -450 -194 -527 -228 l-52 -24 -78 34 c-43 18 -184 79 -313 135 -129 56 -296 128 -370 160 -204 88 -270 119 -270 125 0 3 4 4 9 1 5 -3 233 -103 507 -221z"/>
 <path d="M7505 5114 c-323 -32 -642 -110 -905 -221 -108 -46 -280 -141 -280 -155 0 -5 11 -13 24 -18 14 -5 379 -163 812 -350 433 -188 797 -345 808 -350 12 -4 77 -32 146 -63 160 -70 223 -97 1435 -622 556 -240 1075 -466 1155 -500 80 -35 286 -124 457 -198 l313 -135 362 155 c200 86 375 158 390 162 38 8 697 284 698 292 0 3 -39 22 -87 42 -49 20 -182 77 -298 127 -115 51 -255 111 -310 135 -55 23 -662 286 -1350 585 -2572 1115 -2327 1011 -2475 1051 -188 50 -292 61 -580 64 -151 2 -293 1 -315 -1z"/>
 <path d="M4655 4263 c-222 -17 -538 -84 -740 -159 -135 -50 -340 -154 -340 -173 0 -7 151 -77 335 -157 576 -249 900 -390 1350 -584 501 -216 1623 -702 2335 -1010 270 -117 497 -214 506 -217 9 -3 160 57 335 133 176 75 328 138 339 139 11 1 29 6 40 11 422 173 555 231 556 239 1 5 -70 40 -157 78 -88 37 -240 103 -339 146 -99 44 -380 165 -625 271 -245 105 -692 299 -995 430 -302 131 -702 304 -887 384 -186 80 -377 165 -425 189 -134 67 -360 163 -462 197 -221 72 -539 104 -826 83z"/>
 <path d="M6350 1894 c30 -15 100 -45 155 -69 184 -77 710 -307 745 -325 41 -21 112 -42 106 -31 -6 8 -53 29 -636 281 -217 93 -402 170 -410 170 -8 0 10 -12 40 -26z"/>
 </g>
<g id="layer103" fill="#be33da" stroke="none">
 <path d="M2133 10856 c-3 -5 -34 -6 -69 -3 -38 3 -67 1 -70 -5 -4 -6 -25 -8 -50 -4 -26 3 -46 1 -50 -5 -3 -6 -19 -8 -35 -5 -15 3 -31 1 -35 -5 -3 -6 -19 -8 -35 -5 -15 3 -31 1 -35 -5 -3 -6 -17 -8 -29 -5 -13 3 -26 2 -29 -3 -3 -4 -34 -14 -68 -20 -292 -57 -589 -173 -794 -311 -41 -27 -77 -50 -80 -50 -3 0 -15 -11 -26 -25 -11 -14 -24 -25 -28 -25 -9 0 -100 -86 -100 -94 0 -2 -20 -33 -44 -68 -51 -77 -84 -168 -93 -256 -3 -34 -10 -65 -15 -68 -11 -7 -10 -6740 1 -6762 5 -9 14 -44 20 -77 15 -84 70 -189 138 -264 38 -43 49 -60 33 -51 -25 13 5 -16 75 -73 55 -45 257 -140 575 -272 58 -24 173 -74 255 -110 83 -37 206 -91 275 -120 190 -81 358 -154 420 -182 30 -14 96 -42 145 -63 74 -31 372 -161 490 -215 17 -7 59 -25 95 -40 36 -15 83 -35 105 -46 22 -10 68 -29 102 -43 35 -15 87 -37 115 -50 66 -30 220 -97 503 -219 121 -52 250 -109 288 -126 37 -17 70 -31 72 -31 3 0 27 -10 53 -21 52 -24 102 -46 174 -78 26 -12 49 -21 53 -21 3 0 36 -14 73 -31 113 -53 164 -76 237 -104 39 -15 79 -32 90 -38 11 -6 22 -12 25 -12 3 -1 16 -6 30 -12 14 -6 28 -11 33 -12 4 0 22 -8 40 -18 17 -9 34 -17 37 -18 6 -1 94 -42 133 -62 15 -8 27 -11 27 -8 0 4 16 -3 35 -15 19 -12 35 -18 35 -15 0 4 6 3 13 -3 60 -50 244 -69 322 -33 81 37 164 147 182 241 4 19 8 210 10 423 l4 389 -23 -7 c-20 -7 -396 -168 -535 -230 l-52 -24 -78 34 c-43 18 -184 79 -313 135 -129 56 -298 129 -374 161 -77 33 -171 75 -210 93 -39 18 -111 50 -161 71 -49 20 -101 43 -115 50 -14 7 -81 37 -150 65 -69 29 -136 58 -150 65 -14 7 -97 43 -185 80 -88 37 -171 73 -185 80 -14 7 -65 30 -115 50 -49 21 -101 43 -115 50 -14 7 -79 35 -145 63 -66 27 -289 123 -495 212 -206 89 -503 217 -660 285 -534 230 -600 260 -600 270 0 13 104 74 203 120 94 43 304 115 351 119 18 2 38 6 45 10 7 5 29 9 49 11 20 1 45 6 55 10 10 4 21 5 24 1 3 -3 12 -1 20 5 7 6 22 9 33 6 11 -3 23 -1 26 5 3 5 18 8 32 7 15 -1 35 2 45 6 10 4 35 5 57 1 21 -3 41 -2 44 3 7 11 325 11 332 -1 3 -5 27 -6 53 -2 30 4 51 2 55 -4 4 -6 13 -9 21 -5 8 3 23 2 33 -2 9 -5 24 -7 34 -6 9 1 19 -3 22 -8 4 -6 13 -8 21 -4 9 3 21 0 29 -6 7 -6 15 -8 19 -5 10 11 173 -45 322 -111 82 -36 150 -64 151 -62 2 2 -23 22 -55 45 -32 24 -101 84 -153 135 -106 102 -155 179 -194 303 l-24 74 0 3477 c0 3263 -1 3477 -17 3488 -9 7 -23 11 -30 8 -7 -3 -21 -2 -30 2 -10 5 -28 7 -40 6 -13 -1 -28 1 -35 5 -7 5 -27 7 -44 5 -18 -1 -35 2 -38 7 -3 6 -24 8 -46 5 -21 -3 -47 -2 -57 2 -26 10 -274 12 -280 1z"/>
 <path d="M6350 1894 c30 -15 100 -45 155 -69 184 -77 710 -307 745 -325 41 -21 112 -42 106 -31 -6 8 -53 29 -636 281 -217 93 -402 170 -410 170 -8 0 10 -12 40 -26z"/>
 </g>

</svg>