<!DOCTYPE svg PUBLIC "-//W3C//DTD SVG 20010904//EN" "http://www.w3.org/TR/2001/REC-SVG-20010904/DTD/svg10.dtd">
<svg version="1.0" xmlns="http://www.w3.org/2000/svg" width="1500px" height="1500px" viewBox="0 0 15000 15000" preserveAspectRatio="xMidYMid meet">
<g id="layer101" fill="#7601a9" stroke="none">
 <path d="M6849 14036 c-2 -3 -84 -12 -182 -21 -97 -9 -183 -18 -190 -20 -6 -3 -57 -12 -112 -20 -176 -26 -442 -81 -537 -111 -100 -31 -173 -56 -188 -63 -8 -5 -42 -16 -74 -25 -65 -19 -289 -129 -376 -184 -85 -54 -191 -136 -239 -185 -28 -29 -49 -44 -60 -40 -11 3 -12 2 -4 -4 10 -7 7 -17 -13 -44 l-25 -34 4 -375 c2 -206 7 -385 12 -397 l7 -23 -556 0 c-482 0 -583 -3 -754 -20 -108 -11 -224 -24 -257 -30 -33 -6 -103 -18 -155 -26 -220 -37 -425 -85 -550 -128 -58 -19 -130 -44 -160 -54 -222 -77 -493 -236 -641 -378 -31 -29 -60 -50 -64 -46 -3 4 -5 3 -3 -3 1 -5 -8 -27 -20 -47 l-23 -38 4 -367 c3 -328 23 -678 42 -748 3 -11 12 -58 20 -105 37 -215 77 -352 146 -495 85 -177 182 -300 332 -420 102 -82 387 -244 484 -275 21 -7 52 -18 68 -25 102 -44 343 -115 495 -146 52 -11 138 -28 190 -39 52 -11 108 -23 124 -26 24 -6 33 -1 62 30 33 36 209 156 229 156 5 0 23 7 39 15 17 9 77 28 135 43 98 25 121 27 306 27 219 0 273 -8 435 -67 99 -36 170 -79 258 -156 l63 -55 52 12 c72 16 174 38 287 60 150 30 391 101 495 146 17 7 48 18 70 25 22 7 46 17 53 23 7 5 15 7 18 4 6 -5 -12 -145 -27 -214 -5 -23 -9 -120 -9 -215 l0 -173 -98 -34 c-53 -18 -122 -46 -153 -62 -31 -15 -59 -25 -63 -22 -3 4 -6 2 -6 -3 0 -6 -19 -21 -42 -34 -79 -44 -163 -103 -219 -157 l-56 -54 -16 25 c-102 154 -356 380 -559 494 -178 101 -443 156 -650 134 -135 -15 -320 -65 -405 -110 -11 -6 -210 -12 -508 -15 -540 -5 -601 -10 -945 -77 -413 -80 -765 -241 -946 -433 l-67 -70 6 -326 c7 -440 34 -656 109 -890 78 -244 212 -414 458 -581 164 -111 482 -220 858 -295 l82 -16 39 38 c22 21 67 55 101 75 l62 37 49 -97 c27 -52 48 -96 46 -97 -1 -1 -41 -15 -88 -32 -300 -106 -558 -382 -684 -732 -58 -161 -77 -271 -82 -494 -14 -547 82 -883 315 -1098 174 -161 316 -235 529 -275 133 -24 566 -15 678 15 79 21 242 93 294 130 26 19 27 19 51 -1 32 -26 200 -110 293 -147 76 -30 372 -108 519 -137 l87 -17 50 45 c89 80 242 141 401 160 220 26 461 -38 599 -159 l52 -46 87 18 c213 42 472 115 583 164 107 48 114 50 143 36 128 -58 247 -75 520 -75 254 0 352 14 482 66 l66 26 62 -27 c167 -75 385 -139 646 -191 l85 -17 45 43 c55 51 179 112 286 141 112 31 325 31 436 1 127 -34 229 -87 301 -155 35 -33 33 -33 257 19 336 78 506 141 671 251 l36 24 114 -59 c213 -109 299 -125 648 -119 222 4 267 7 336 26 83 22 237 91 302 135 51 35 158 141 193 192 81 116 139 279 176 491 23 130 26 178 27 393 1 220 -1 256 -22 350 -106 491 -361 814 -780 991 -36 15 -66 31 -65 36 0 4 24 56 52 115 29 59 52 112 52 118 0 16 17 12 83 -21 67 -33 114 -65 163 -111 l32 -30 83 17 c609 124 939 286 1114 550 169 253 222 517 232 1140 l5 340 -43 52 c-50 59 -173 165 -257 221 -217 145 -511 247 -917 318 -231 41 -327 47 -805 51 -444 4 -477 6 -512 24 -58 30 -163 65 -268 90 -76 18 -124 22 -240 22 -154 0 -236 -14 -400 -70 -240 -82 -485 -281 -661 -536 -55 -79 -63 -87 -77 -74 -83 68 -141 114 -162 126 -112 65 -209 114 -287 147 l-93 39 6 80 c11 140 -22 482 -57 593 -6 18 -9 35 -6 38 2 2 33 -10 68 -27 35 -18 112 -49 170 -69 58 -20 109 -39 115 -42 5 -3 25 -9 44 -13 19 -4 40 -11 45 -15 11 -8 216 -58 370 -90 55 -12 133 -28 173 -37 l73 -16 42 41 c96 92 255 176 394 207 157 35 181 37 353 32 148 -4 191 -8 280 -31 57 -15 109 -31 115 -35 5 -5 24 -13 42 -19 40 -13 193 -111 193 -123 0 -5 6 -9 14 -9 8 0 26 -14 41 -31 26 -32 26 -32 78 -20 29 6 84 18 122 26 191 39 267 55 340 75 86 23 271 84 320 105 17 7 48 18 70 25 55 18 236 113 318 167 78 52 236 203 296 284 23 31 66 104 95 162 98 192 154 406 191 732 29 252 35 363 35 698 l0 337 -117 120 c-107 110 -259 233 -338 272 -16 8 -69 35 -116 60 -223 119 -549 216 -944 283 -49 8 -115 20 -145 25 -30 6 -145 19 -255 30 -171 17 -275 20 -705 20 l-505 0 3 364 4 363 -65 74 c-70 80 -162 161 -286 249 -88 63 -326 187 -411 215 -30 9 -68 23 -85 30 -32 13 -115 42 -203 69 -148 46 -511 114 -752 141 -74 8 -174 19 -221 25 -82 9 -1221 15 -1230 6z m923 -3161 c63 -13 140 -34 171 -46 48 -18 57 -26 57 -47 0 -13 5 -52 10 -86 6 -33 16 -106 24 -161 8 -55 17 -108 21 -119 6 -14 -8 -10 -71 23 -237 125 -533 168 -779 112 -55 -12 -109 -26 -120 -31 -11 -4 -42 -16 -70 -25 -27 -10 -55 -21 -60 -26 -6 -4 -22 -12 -36 -17 l-25 -10 13 92 c7 50 16 121 19 158 7 67 7 68 48 90 142 78 310 116 528 117 131 1 175 -3 270 -24z m1472 -4235 c4 -25 13 -63 20 -85 8 -22 26 -78 41 -125 27 -81 84 -199 129 -266 41 -61 132 -161 190 -210 l58 -49 -458 -6 c-270 -3 -494 -11 -544 -18 -127 -18 -305 -49 -395 -70 l-80 -18 -75 70 c-172 159 -323 249 -495 299 -67 19 -105 22 -230 23 -147 0 -152 -1 -266 -38 -67 -22 -149 -58 -197 -87 -94 -55 -219 -158 -274 -223 l-37 -45 -78 19 c-269 64 -522 89 -915 89 l-317 0 46 48 c155 158 267 378 318 621 22 108 24 109 76 65 118 -100 323 -205 541 -278 113 -38 368 -104 506 -131 l83 -17 29 30 c64 68 188 134 310 167 99 26 335 32 441 10 144 -29 265 -86 358 -170 l40 -37 83 17 c512 104 840 244 1028 439 49 51 53 49 64 -24z"/>
 <path d="M5455 3363 c-294 -36 -532 -190 -717 -461 -79 -116 -163 -320 -199 -477 -31 -140 -28 -552 6 -738 34 -188 115 -376 210 -487 111 -129 257 -232 405 -285 135 -48 193 -55 444 -55 216 0 241 2 332 25 308 78 506 261 598 555 54 170 70 300 70 575 1 274 -4 314 -61 505 -56 188 -158 357 -302 501 -107 106 -230 203 -309 243 -147 75 -345 116 -477 99z"/>
 <path d="M9202 3360 c-388 -54 -721 -370 -851 -807 -58 -198 -74 -413 -50 -686 25 -291 97 -506 217 -656 72 -89 212 -200 317 -251 183 -89 217 -95 540 -95 325 0 360 6 545 97 90 45 117 64 190 137 91 92 143 178 193 316 56 158 87 384 87 639 0 220 -32 386 -112 578 -93 224 -241 401 -486 581 -65 47 -227 117 -317 135 -77 16 -203 21 -273 12z"/>
 </g>
<g id="layer102" fill="#bc8739" stroke="none">
 <path d="M6849 14036 c-2 -3 -84 -12 -182 -21 -97 -9 -183 -18 -190 -20 -6 -3 -57 -12 -112 -20 -176 -26 -442 -81 -537 -111 -100 -31 -173 -56 -188 -63 -8 -5 -42 -16 -74 -25 -65 -19 -289 -129 -376 -184 -85 -54 -191 -136 -239 -185 -28 -29 -49 -44 -60 -40 -11 3 -12 2 -4 -4 10 -7 7 -17 -13 -44 l-25 -34 4 -375 c2 -206 7 -385 12 -397 l7 -23 -556 0 c-482 0 -583 -3 -754 -20 -108 -11 -224 -24 -257 -30 -33 -6 -103 -18 -155 -26 -220 -37 -425 -85 -550 -128 -58 -19 -130 -44 -160 -54 -222 -77 -493 -236 -641 -378 -31 -29 -60 -50 -64 -46 -3 4 -5 3 -3 -3 1 -5 -8 -27 -20 -47 l-23 -38 4 -367 c3 -328 23 -678 42 -748 3 -11 12 -58 20 -105 37 -215 77 -352 146 -495 85 -177 182 -300 332 -420 109 -88 379 -240 503 -283 33 -11 111 -38 174 -60 98 -35 157 -52 265 -79 28 -7 183 -40 295 -63 52 -11 107 -22 121 -26 21 -5 34 2 67 34 59 57 157 120 262 167 69 31 236 67 345 73 355 22 634 -65 827 -255 26 -26 28 -26 80 -14 29 6 87 19 128 27 134 28 255 55 270 59 8 2 44 11 80 20 61 15 130 37 175 56 11 4 40 14 65 20 25 7 50 16 55 19 6 4 35 15 65 25 30 10 61 22 68 28 7 5 15 7 18 4 6 -5 -12 -145 -27 -214 -5 -23 -9 -120 -9 -215 l0 -173 -98 -34 c-53 -18 -122 -46 -153 -62 -31 -15 -59 -25 -63 -22 -3 4 -6 2 -6 -3 0 -6 -19 -21 -42 -34 -79 -43 -163 -103 -218 -156 l-55 -53 -59 75 c-169 215 -438 424 -643 500 -289 107 -556 107 -844 0 -37 -13 -75 -29 -86 -34 -11 -6 -210 -12 -508 -15 -540 -5 -601 -10 -945 -77 -413 -80 -765 -241 -946 -433 l-67 -70 6 -326 c7 -440 34 -656 109 -890 78 -244 212 -414 458 -581 164 -111 482 -220 858 -295 l82 -16 39 38 c22 21 67 55 101 75 l62 37 49 -97 c27 -52 48 -96 46 -97 -1 -1 -41 -15 -88 -32 -300 -106 -558 -382 -684 -732 -58 -161 -77 -271 -82 -494 -9 -354 28 -618 117 -822 95 -220 345 -440 588 -518 130 -41 213 -49 481 -44 297 5 348 14 518 97 81 39 119 64 179 122 208 199 295 428 325 853 27 375 -20 643 -160 918 l-57 114 170 6 c283 9 492 57 681 155 l90 47 370 0 c229 0 420 -5 500 -13 156 -15 390 -48 462 -65 l51 -12 -48 -73 c-96 -146 -168 -324 -207 -517 -26 -129 -26 -558 1 -730 50 -327 164 -548 351 -680 59 -42 125 -79 125 -71 0 2 -29 28 -65 57 -179 145 -286 379 -328 714 -23 177 -16 556 11 685 96 454 376 808 744 939 111 39 153 46 293 46 107 0 156 -5 210 -19 99 -27 198 -70 280 -120 91 -56 95 -58 95 -52 0 15 -179 136 -255 172 -151 72 -226 88 -400 89 -147 0 -152 -1 -266 -38 -67 -22 -149 -58 -197 -87 -94 -55 -219 -158 -274 -223 l-37 -45 -78 19 c-269 64 -522 89 -916 89 l-318 0 60 62 c152 159 248 351 305 607 25 108 25 109 77 65 66 -55 146 -107 226 -148 98 -49 114 -46 28 6 -102 60 -174 118 -245 195 l-62 68 6 65 c14 162 18 598 7 700 -28 239 -103 485 -209 681 l-36 67 28 37 c38 49 154 140 254 199 78 46 283 136 310 136 8 0 12 -20 14 -62 0 -35 2 -67 3 -73 1 -9 9 -72 21 -170 15 -126 77 -347 129 -461 101 -220 319 -444 535 -546 228 -108 408 -143 745 -142 244 0 373 16 540 66 499 150 754 541 807 1239 l12 157 53 -19 c29 -10 53 -15 53 -10 0 4 -22 15 -50 25 l-50 18 6 86 c13 190 -36 585 -82 657 -7 11 -29 65 -49 120 -50 134 -131 290 -213 405 -74 104 -232 269 -332 347 -76 59 -77 62 -110 307 -22 166 -24 186 -12 186 5 0 33 -20 63 -45 30 -24 68 -55 84 -69 l31 -24 139 28 c541 110 876 233 1112 409 84 63 210 190 260 261 137 201 227 486 268 850 9 80 18 164 21 187 l5 41 77 9 c122 13 857 10 1032 -5 479 -40 757 -85 1077 -176 282 -80 568 -213 734 -343 30 -23 59 -43 64 -43 32 0 -208 191 -290 232 -16 8 -69 35 -116 60 -223 119 -549 216 -944 283 -49 8 -115 20 -145 25 -30 6 -145 19 -255 30 -171 17 -275 20 -705 20 l-505 0 3 364 4 363 -65 74 c-70 80 -162 161 -286 249 -88 63 -326 187 -411 215 -30 9 -68 23 -85 30 -32 13 -115 42 -203 69 -148 46 -511 114 -752 141 -74 8 -174 19 -221 25 -82 9 -1221 15 -1230 6z m923 -3161 c63 -13 140 -34 171 -46 48 -18 57 -26 57 -47 0 -13 5 -52 10 -86 6 -33 16 -106 24 -161 8 -55 17 -108 21 -119 6 -14 -8 -10 -71 23 -237 125 -533 168 -779 112 -55 -12 -109 -26 -120 -31 -11 -4 -42 -16 -70 -25 -27 -10 -55 -21 -60 -26 -6 -4 -22 -12 -36 -17 l-25 -10 13 92 c7 50 16 121 19 158 7 67 7 68 48 90 142 78 310 116 528 117 131 1 175 -3 270 -24z"/>
 <path d="M11296 9146 c3 -9 11 -16 16 -16 13 0 5 23 -10 28 -7 2 -10 -2 -6 -12z"/>
 <path d="M10435 9031 c-307 -40 -585 -191 -809 -442 -73 -81 -186 -240 -186 -261 0 -7 -12 -33 -25 -57 -109 -189 -185 -453 -212 -726 -13 -135 -13 -196 -4 -391 7 -127 13 -242 16 -255 10 -65 18 -145 16 -154 -10 -37 22 -166 84 -346 23 -65 80 -177 118 -234 49 -72 191 -224 210 -225 4 0 -18 31 -50 69 -178 211 -279 498 -313 891 -16 179 -17 534 -2 640 105 738 547 1274 1151 1395 116 24 361 17 477 -14 305 -79 592 -290 782 -573 142 -213 233 -443 284 -722 20 -108 22 -152 22 -401 -2 -318 -19 -486 -74 -709 -17 -70 -30 -129 -28 -130 2 -1 23 -11 48 -21 61 -26 140 -76 189 -120 l40 -37 83 17 c608 124 938 287 1113 550 169 253 222 517 232 1140 l5 340 -43 52 c-50 59 -173 165 -257 221 -217 145 -511 247 -917 318 -231 41 -327 47 -805 51 -444 4 -477 6 -512 24 -163 83 -451 133 -633 110z"/>
 <path d="M9286 8455 c6 -15 43 -40 49 -33 1 2 -11 13 -26 26 -21 17 -27 19 -23 7z"/>
 <path d="M11712 6062 c-86 -116 -214 -222 -349 -291 -74 -37 -245 -90 -368 -113 -103 -19 -154 -22 -360 -22 -183 0 -264 4 -340 17 -207 36 -376 99 -526 197 l-75 50 -410 0 c-415 0 -562 -9 -777 -45 -135 -23 -291 -57 -301 -66 -5 -5 6 -25 26 -47 128 -142 252 -412 293 -637 36 -199 29 -570 -16 -801 -38 -200 -110 -363 -212 -483 -54 -62 -156 -146 -214 -174 -24 -12 -42 -25 -40 -30 2 -6 47 -30 102 -54 103 -47 332 -113 546 -159 l126 -26 57 46 c228 185 611 217 891 73 51 -26 70 -39 131 -90 38 -32 29 -33 234 13 146 33 358 92 415 116 65 26 256 124 285 145 l27 20 114 -59 c213 -109 299 -125 648 -119 222 4 267 7 336 26 83 22 237 91 302 135 51 35 158 141 193 192 81 116 139 279 176 491 23 130 26 178 27 393 1 220 -1 256 -22 350 -100 461 -322 764 -696 950 -171 85 -161 85 -223 2z"/>
 <path d="M5455 3363 c-294 -36 -532 -190 -717 -461 -79 -116 -163 -320 -199 -477 -31 -140 -28 -552 6 -738 45 -247 148 -446 300 -579 51 -44 47 -36 -33 62 -87 107 -153 276 -189 485 -25 148 -25 586 0 705 59 274 169 484 347 660 113 113 229 185 370 232 83 27 112 32 231 36 115 4 149 1 220 -17 81 -20 217 -81 307 -137 23 -14 42 -24 42 -20 0 11 -156 124 -208 150 -147 75 -345 116 -477 99z"/>
 <path d="M9202 3360 c-388 -54 -721 -370 -851 -807 -58 -198 -74 -413 -50 -686 25 -291 97 -506 217 -656 70 -87 212 -199 317 -251 175 -86 225 -95 545 -95 319 0 355 6 540 97 90 45 117 64 190 137 63 64 96 107 127 166 107 209 151 437 151 785 0 236 -29 388 -113 587 -95 226 -238 396 -483 576 -65 47 -227 117 -317 135 -77 16 -203 21 -273 12z"/>
 </g>
<g id="layer103" fill="#e1b12a" stroke="none">
 <path d="M6849 14036 c-2 -3 -84 -12 -182 -21 -97 -9 -183 -18 -190 -20 -6 -3 -57 -12 -112 -20 -176 -26 -442 -81 -537 -111 -100 -31 -173 -56 -188 -63 -8 -5 -42 -16 -74 -25 -65 -19 -289 -129 -376 -184 -85 -54 -191 -136 -239 -185 -28 -29 -49 -44 -60 -40 -11 3 -12 2 -4 -4 10 -7 7 -17 -13 -44 l-25 -34 4 -375 c2 -206 7 -385 12 -397 l7 -23 -556 0 c-482 0 -583 -3 -754 -20 -108 -11 -224 -24 -257 -30 -33 -6 -103 -18 -155 -26 -220 -37 -425 -85 -550 -128 -58 -19 -130 -44 -160 -54 -222 -77 -493 -236 -641 -378 -31 -29 -60 -50 -64 -46 -3 4 -5 3 -3 -3 1 -5 -8 -27 -20 -47 l-23 -38 4 -367 c3 -328 23 -678 42 -748 3 -11 12 -58 20 -105 48 -281 121 -485 236 -659 82 -124 270 -296 396 -362 32 -17 62 -34 68 -38 33 -27 247 -127 345 -161 199 -71 232 -81 375 -117 28 -7 183 -40 295 -63 52 -11 107 -22 121 -26 21 -5 34 2 67 34 43 41 120 95 187 130 166 87 384 126 625 111 163 -10 361 -68 469 -136 30 -19 65 -39 78 -44 13 -5 22 -13 18 -18 -3 -6 5 -15 17 -22 12 -7 31 -23 42 -37 15 -19 25 -23 50 -18 64 12 400 84 426 91 8 2 44 11 80 20 61 15 130 37 175 56 11 4 40 14 65 20 25 7 50 16 55 19 6 4 35 15 65 25 30 10 61 22 68 28 7 5 15 7 18 4 6 -5 -12 -145 -27 -214 -5 -23 -9 -120 -9 -215 l0 -173 -98 -34 c-53 -18 -122 -46 -153 -62 -31 -15 -59 -25 -63 -22 -3 4 -6 2 -6 -3 0 -6 -19 -21 -42 -34 -79 -43 -163 -103 -218 -156 l-55 -53 -59 75 c-57 72 -190 209 -231 238 -11 7 -38 30 -60 50 -78 72 -244 172 -352 212 -289 107 -556 107 -844 0 -37 -13 -75 -29 -86 -34 -11 -6 -210 -12 -508 -15 -540 -5 -601 -10 -945 -77 -413 -80 -765 -241 -946 -433 l-67 -70 6 -326 c7 -440 34 -656 109 -890 78 -244 212 -414 458 -581 164 -111 482 -220 858 -295 l82 -16 39 38 c22 21 67 55 101 75 l62 37 49 -97 c27 -52 48 -96 46 -97 -1 -1 -41 -15 -88 -32 -300 -106 -558 -382 -684 -732 -58 -161 -77 -271 -82 -494 -9 -354 28 -618 117 -822 95 -220 345 -440 588 -518 130 -41 213 -49 481 -44 297 5 348 14 518 97 81 39 119 64 179 122 208 199 295 428 325 853 27 375 -20 643 -160 918 l-57 114 170 6 c282 9 491 57 681 154 l90 47 345 3 c190 1 381 -2 425 -7 44 -5 118 -11 165 -15 47 -3 96 -8 110 -10 24 -3 118 -16 220 -29 25 -3 56 -10 70 -15 14 -6 33 -11 43 -13 14 -3 11 -11 -22 -58 -21 -30 -60 -97 -85 -147 -48 -95 -126 -311 -126 -349 0 -11 -3 -24 -7 -27 -3 -4 -8 -17 -9 -30 -1 -12 -5 -42 -9 -67 -8 -55 -9 -443 -1 -520 28 -277 113 -530 221 -658 14 -17 25 -33 25 -36 0 -9 67 -76 76 -76 3 0 23 -13 43 -28 56 -45 70 -49 23 -8 -96 85 -190 238 -240 391 -33 101 -67 277 -59 299 4 9 2 18 -4 22 -5 3 -10 27 -10 52 -4 374 -4 474 2 478 4 2 5 12 2 23 -7 27 24 181 58 287 35 110 119 278 185 371 56 79 195 221 274 280 163 122 400 193 600 179 95 -6 221 -35 290 -67 74 -34 143 -71 174 -93 16 -11 26 -15 22 -8 -15 24 -137 104 -218 142 -146 68 -221 84 -393 85 -147 0 -152 -1 -266 -38 -67 -22 -149 -58 -197 -87 -94 -55 -219 -158 -274 -223 l-37 -45 -78 19 c-269 64 -522 89 -916 89 l-318 0 60 62 c152 159 248 351 305 607 24 106 26 109 67 74 73 -62 249 -175 249 -159 0 2 -26 22 -57 43 -32 21 -95 75 -141 121 -46 45 -85 82 -87 82 -2 0 -6 -10 -9 -22 -5 -23 -3 0 14 217 23 288 9 622 -35 810 -46 197 -147 444 -235 575 -29 44 -34 54 -21 46 6 -4 18 -21 27 -38 l15 -30 62 59 c78 74 138 117 252 181 103 57 254 122 285 122 20 0 21 -5 20 -67 -3 -159 47 -426 113 -610 50 -138 157 -321 179 -307 7 4 8 2 4 -5 -10 -15 13 -43 27 -34 6 3 7 1 3 -5 -3 -6 3 -16 14 -22 12 -6 25 -22 30 -35 16 -43 204 -186 310 -237 227 -108 408 -143 745 -142 244 0 373 16 540 66 377 113 623 377 735 787 43 160 60 283 97 722 6 70 -11 336 -28 434 -16 92 -40 188 -55 210 -7 11 -29 65 -49 120 -74 199 -178 375 -314 531 -84 97 -233 231 -279 251 -26 11 -32 18 -27 34 4 11 3 25 -2 32 -5 7 -10 28 -11 47 -2 19 -7 50 -13 67 -6 18 -7 37 -4 43 4 6 2 17 -4 24 -6 7 -10 26 -10 42 0 16 -2 62 -6 102 -3 39 -2 72 2 72 5 0 34 -20 64 -45 30 -24 68 -55 84 -69 l31 -24 139 28 c541 110 876 233 1112 409 84 63 210 190 260 261 137 201 227 486 268 850 9 80 18 163 21 186 l5 41 82 11 c83 11 890 8 1027 -4 36 -3 81 -5 100 -5 19 0 55 -4 80 -9 25 -5 81 -12 125 -16 96 -7 128 -10 138 -14 4 -1 19 -4 35 -5 25 -3 69 -9 137 -20 17 -3 40 -5 52 -5 12 0 25 -5 28 -10 4 -6 11 -7 17 -4 5 4 20 2 31 -4 22 -10 113 -30 168 -37 17 -3 54 -13 82 -23 29 -11 58 -17 66 -14 7 2 16 0 20 -5 7 -11 80 -33 110 -33 11 0 21 -3 21 -8 0 -4 37 -20 83 -36 90 -31 97 -34 240 -102 87 -41 232 -130 278 -170 9 -8 18 -11 22 -8 3 3 12 -3 19 -15 7 -12 17 -21 22 -21 33 0 -205 191 -289 232 -16 8 -69 35 -116 60 -223 119 -549 216 -944 283 -49 8 -115 20 -145 25 -30 6 -145 19 -255 30 -171 17 -275 20 -705 20 l-505 0 3 364 4 363 -65 74 c-70 80 -162 161 -286 249 -88 63 -326 187 -411 215 -30 9 -68 23 -85 30 -32 13 -115 42 -203 69 -148 46 -511 114 -752 141 -74 8 -174 19 -221 25 -82 9 -1221 15 -1230 6z m923 -3161 c63 -13 140 -34 171 -46 48 -18 57 -26 57 -47 0 -13 5 -52 10 -86 6 -33 16 -106 24 -161 8 -55 17 -108 21 -119 6 -14 -8 -10 -71 23 -237 125 -533 168 -779 112 -55 -12 -109 -26 -120 -31 -11 -4 -42 -16 -70 -25 -27 -10 -55 -21 -60 -26 -6 -4 -22 -12 -36 -17 l-25 -10 13 92 c7 50 16 121 19 158 7 67 7 68 48 90 142 78 310 116 528 117 131 1 175 -3 270 -24z"/>
 <path d="M10435 9031 c-307 -40 -585 -191 -809 -442 -88 -98 -186 -241 -186 -272 0 -13 -8 -35 -18 -48 -51 -66 -170 -409 -187 -539 -4 -30 -10 -59 -13 -64 -3 -5 -7 -25 -9 -45 -1 -20 -6 -65 -10 -101 -12 -119 -6 -397 14 -570 3 -30 7 -71 8 -91 1 -20 5 -41 9 -48 4 -6 4 -28 1 -49 -8 -45 -8 -45 4 -107 35 -169 118 -378 194 -490 53 -77 192 -225 212 -224 6 0 -2 9 -17 20 -16 11 -28 26 -28 33 0 7 -16 27 -35 46 -19 19 -35 39 -35 45 0 7 -9 20 -20 30 -11 10 -20 23 -20 28 0 6 -6 18 -14 26 -24 27 -125 283 -137 346 -6 33 -15 69 -19 80 -4 11 -8 29 -8 41 0 11 -6 49 -13 85 -14 72 -15 87 -25 214 -7 107 -8 531 0 595 3 25 6 52 6 60 1 8 6 29 12 47 5 18 10 46 10 63 1 17 5 33 9 36 5 2 6 11 2 19 -3 9 -1 21 5 28 6 6 13 30 17 52 4 22 11 45 15 50 4 6 17 39 28 75 11 36 39 102 61 148 23 45 41 86 41 91 0 5 8 19 19 32 10 13 28 42 40 64 41 78 118 171 245 297 72 70 134 128 140 128 5 0 25 12 45 28 45 34 63 45 131 78 125 60 158 74 176 74 11 0 25 5 31 11 6 6 30 13 54 15 24 2 52 7 64 11 35 11 67 13 195 14 142 1 240 -7 254 -21 6 -6 18 -10 29 -10 46 0 298 -104 344 -142 7 -5 20 -8 28 -4 9 3 14 2 11 -3 -3 -5 20 -28 52 -52 31 -24 107 -93 167 -154 244 -244 396 -550 467 -939 20 -108 22 -152 22 -401 -2 -318 -19 -486 -74 -709 -17 -70 -30 -129 -28 -130 2 -1 23 -11 48 -21 61 -26 140 -76 189 -120 l40 -37 83 17 c608 124 938 287 1113 550 169 253 222 517 232 1140 l5 340 -43 52 c-50 59 -173 165 -257 221 -217 145 -511 247 -917 318 -231 41 -327 47 -805 51 -444 4 -477 6 -512 24 -163 83 -451 133 -633 110z"/>
 <path d="M11752 6108 c-11 -13 -45 -52 -74 -88 -156 -187 -376 -304 -680 -361 -106 -20 -155 -23 -363 -23 -183 0 -264 4 -340 17 -207 36 -376 99 -526 197 l-75 50 -410 0 c-415 0 -563 -9 -777 -45 -144 -25 -297 -59 -297 -67 0 -4 30 -49 66 -100 121 -171 214 -387 249 -583 36 -199 29 -570 -16 -801 -38 -200 -110 -363 -212 -483 -54 -62 -156 -146 -214 -174 -24 -12 -42 -25 -40 -30 2 -6 47 -30 102 -54 103 -47 332 -113 546 -159 l126 -26 57 46 c228 185 611 217 891 73 51 -26 70 -39 131 -90 38 -32 29 -33 234 13 146 33 358 92 415 116 65 26 256 124 285 145 l27 20 114 -59 c213 -109 299 -125 648 -119 222 4 267 7 336 26 83 22 237 91 302 135 51 35 158 141 193 192 81 116 139 279 176 491 23 130 26 178 27 393 1 220 -1 256 -22 350 -100 461 -323 765 -696 949 -152 76 -157 77 -183 49z"/>
 <path d="M5455 3363 c-126 -16 -311 -79 -389 -133 -239 -165 -382 -358 -482 -655 -56 -165 -67 -242 -66 -490 2 -371 48 -587 170 -793 41 -68 159 -199 170 -188 3 4 -10 23 -30 44 -46 48 -119 185 -154 287 -56 168 -75 324 -75 615 1 169 4 219 21 295 6 28 12 59 14 70 1 11 5 27 8 35 4 8 16 47 28 85 28 90 108 252 166 335 25 36 49 67 53 70 4 3 20 22 35 43 26 33 169 153 221 184 36 22 120 60 160 73 22 7 42 16 45 19 10 13 148 32 240 33 138 2 230 -13 315 -52 105 -47 189 -92 218 -117 9 -9 17 -13 17 -10 0 12 -155 124 -208 151 -147 75 -345 116 -477 99z"/>
 <path d="M9202 3360 c-388 -54 -721 -370 -851 -807 -58 -198 -74 -413 -50 -686 25 -291 97 -506 217 -656 70 -87 212 -199 317 -251 175 -86 225 -95 545 -95 319 0 355 6 540 97 90 45 117 64 190 137 63 64 96 107 127 166 107 209 151 437 151 785 0 236 -29 388 -113 587 -95 226 -238 396 -483 576 -65 47 -227 117 -317 135 -77 16 -203 21 -273 12z"/>
 </g>
<g id="layer104" fill="#bf4bd7" stroke="none">
 <path d="M7185 13973 c-22 -1 -119 -7 -215 -13 -948 -58 -1667 -303 -1993 -678 l-58 -67 6 -230 c18 -714 64 -1087 171 -1371 37 -100 110 -238 156 -297 17 -21 28 -41 24 -44 -3 -4 -7 -4 -9 -2 -2 2 -24 29 -49 59 -112 135 -196 314 -253 538 -29 116 -75 412 -75 484 0 39 -4 50 -22 60 -17 9 -133 12 -468 12 -482 0 -690 -12 -1033 -60 -730 -102 -1266 -323 -1529 -631 l-50 -58 5 -335 c13 -824 93 -1231 301 -1544 62 -93 178 -213 268 -277 34 -24 72 -54 85 -66 37 -36 227 -129 353 -173 199 -71 232 -81 375 -117 28 -7 183 -40 295 -63 52 -11 107 -22 121 -26 21 -5 34 2 67 34 43 41 120 95 187 130 166 87 384 126 625 111 167 -10 360 -67 476 -140 34 -22 65 -39 70 -39 5 0 30 -23 54 -51 39 -45 47 -50 75 -45 64 12 399 84 425 91 8 2 44 11 80 20 61 15 130 37 175 56 11 4 40 14 65 20 25 7 50 16 55 19 6 4 35 15 65 25 99 32 111 47 145 170 96 351 342 695 636 890 65 43 100 73 103 88 9 42 29 192 33 250 5 56 6 58 46 79 217 114 536 151 799 93 186 -40 309 -90 390 -159 21 -17 52 -43 71 -58 l33 -26 139 28 c664 135 1020 288 1266 546 87 92 119 137 182 254 109 204 188 545 213 920 3 58 12 111 18 119 7 10 12 126 14 372 l4 357 -71 80 c-65 73 -119 122 -136 122 -3 0 -34 20 -68 44 -459 326 -1320 511 -2347 504 -140 -1 -273 -3 -295 -5z"/>
 <path d="M7280 10480 c-569 -123 -1004 -643 -1117 -1335 -14 -87 -18 -164 -17 -365 1 -340 28 -571 95 -790 41 -135 118 -294 183 -375 18 -22 35 -48 39 -57 13 -36 210 -183 307 -230 227 -108 408 -143 745 -142 244 0 373 16 540 66 377 113 623 377 735 787 43 160 60 283 97 722 6 70 -11 336 -28 434 -16 92 -40 188 -55 210 -7 11 -29 65 -49 120 -74 199 -178 375 -314 531 -76 89 -231 230 -271 248 -14 6 -63 32 -110 58 -94 52 -224 98 -342 122 -108 22 -327 20 -438 -4z"/>
 <path d="M4200 8944 c-272 -51 -486 -162 -686 -359 -357 -351 -529 -828 -510 -1420 18 -602 129 -960 371 -1202 40 -40 68 -73 63 -73 -17 0 -134 97 -181 150 -25 28 -53 50 -62 50 -29 0 -166 -59 -249 -108 -99 -58 -272 -225 -343 -332 -102 -152 -174 -324 -215 -513 -21 -92 -23 -128 -23 -377 1 -242 3 -290 24 -404 41 -231 99 -376 212 -526 72 -94 146 -154 259 -209 179 -88 280 -104 609 -98 297 5 348 14 518 97 81 39 119 64 179 122 208 199 295 428 325 853 27 375 -20 643 -160 918 l-57 114 170 6 c196 6 356 31 496 77 111 36 258 109 316 156 23 19 46 34 52 34 30 0 177 178 243 294 75 135 149 386 155 531 2 44 8 134 13 200 24 279 10 621 -34 810 -47 203 -146 442 -242 585 -12 19 -23 40 -23 47 0 39 -234 286 -323 340 -230 140 -292 170 -442 211 -75 20 -117 25 -260 27 -93 2 -181 1 -195 -1z"/>
 <path d="M3030 8829 c-493 -33 -904 -123 -1206 -264 -169 -79 -333 -200 -398 -294 l-28 -40 11 -298 c17 -476 43 -679 113 -890 96 -292 261 -481 531 -608 153 -72 439 -157 705 -210 l82 -16 40 38 c22 22 69 56 105 77 36 21 65 41 65 43 0 2 -13 46 -30 96 -65 204 -97 429 -107 757 -15 532 126 977 420 1321 75 88 198 199 275 248 28 19 52 38 52 43 0 10 -462 8 -630 -3z"/>
 <path d="M11268 8833 c-45 -5 -48 -14 -10 -39 33 -21 134 -115 262 -244 229 -230 382 -544 452 -924 20 -108 22 -152 22 -401 -2 -318 -19 -486 -74 -709 -17 -70 -30 -129 -28 -130 2 -1 23 -11 48 -21 61 -26 140 -76 189 -120 l40 -37 83 17 c608 124 938 287 1113 550 169 253 222 517 232 1140 l5 340 -39 47 c-52 64 -101 104 -204 166 -349 211 -781 322 -1414 362 -150 9 -595 11 -677 3z"/>
 <path d="M11727 6081 c-27 -46 -135 -158 -199 -206 -177 -133 -416 -213 -720 -240 -78 -8 -80 -9 -146 -140 -52 -105 -97 -232 -124 -358 -21 -92 -23 -128 -23 -377 1 -242 3 -290 24 -404 51 -289 150 -489 304 -618 33 -27 67 -57 75 -65 21 -20 155 -85 220 -106 130 -41 213 -49 481 -44 222 4 267 7 336 26 83 22 237 91 302 135 51 35 158 141 193 192 81 116 139 279 176 491 23 130 26 178 27 393 1 220 -1 256 -22 350 -83 383 -262 672 -529 854 -68 47 -172 91 -293 125 l-66 19 -16 -27z"/>
 <path d="M9075 5834 c-22 -2 -103 -8 -180 -14 -201 -16 -610 -82 -631 -103 -3 -3 15 -33 39 -68 99 -142 190 -364 222 -544 36 -199 29 -570 -16 -801 -38 -200 -110 -363 -212 -483 -54 -62 -156 -146 -214 -174 -24 -12 -42 -25 -40 -30 2 -6 47 -30 102 -54 103 -47 332 -113 546 -159 l126 -26 57 46 c153 124 383 184 605 157 162 -20 323 -85 406 -163 46 -45 37 -45 245 2 188 43 372 97 453 133 99 45 227 112 255 135 l23 18 -73 61 c-252 206 -360 556 -345 1115 7 282 45 445 153 659 l43 86 -127 6 c-248 13 -427 55 -612 144 l-115 56 -335 2 c-184 2 -353 1 -375 -1z"/>
 <path d="M9300 3289 c-431 -36 -795 -411 -900 -928 -54 -269 -26 -716 60 -953 58 -160 175 -326 274 -392 80 -53 187 -101 287 -128 78 -21 103 -23 359 -23 319 0 355 6 540 97 90 45 117 64 190 137 122 123 193 268 239 487 37 177 51 501 30 679 -34 280 -174 571 -367 762 -46 46 -88 83 -93 83 -6 0 -29 13 -52 29 -163 112 -369 166 -567 150z"/>
 </g>

</svg>